<?xml version="1.0" standalone="no"?>
<!DOCTYPE svg PUBLIC "-//W3C//DTD SVG 20010904//EN"
 "http://www.w3.org/TR/2001/REC-SVG-20010904/DTD/svg10.dtd">
<svg version="1.0" xmlns="http://www.w3.org/2000/svg"
 width="140.000000pt" height="49.000000pt" viewBox="0 0 140.000000 49.000000"
 preserveAspectRatio="xMidYMid meet">

<g transform="translate(0.000000,49.000000) scale(0.100000,-0.100000)"
fill="#000000" stroke="none">
<path d="M1075 483 c-23 -6 -45 -22 -45 -33 0 -4 18 -3 39 3 35 9 48 7 108
-17 59 -24 74 -26 112 -17 43 9 70 26 59 36 -3 3 -17 1 -32 -5 -42 -15 -69
-12 -128 15 -52 24 -73 28 -113 18z"/>
<path d="M893 427 c-67 -55 -72 -67 -27 -67 28 0 35 -3 30 -15 -8 -23 30 -19
54 5 12 12 18 25 15 29 -2 5 2 25 10 45 19 46 19 46 -7 45 -13 0 -46 -19 -75
-42z m52 -7 c8 -12 -14 -34 -36 -38 -21 -3 -20 30 1 40 22 10 28 9 35 -2z"/>
<path d="M120 442 c-21 -17 -22 -22 -11 -36 7 -8 35 -19 63 -22 38 -5 48 -10
46 -23 -4 -19 -58 -27 -87 -12 -13 7 -22 8 -26 1 -8 -12 36 -30 75 -30 15 0
38 9 51 19 35 29 16 54 -50 64 -70 12 -63 33 9 30 62 -3 57 15 -6 24 -30 4
-45 0 -64 -15z"/>
<path d="M282 424 c-17 -12 -22 -24 -20 -47 5 -56 79 -75 122 -31 54 53 -38
123 -102 78z m82 -20 c9 -8 16 -19 16 -24 0 -16 -32 -40 -54 -40 -26 0 -46 17
-46 40 0 38 55 54 84 24z"/>
<path d="M412 384 l3 -57 48 1 c65 1 70 4 17 11 l-45 6 -3 48 c-2 26 -8 47
-13 47 -6 0 -9 -24 -7 -56z"/>
<path d="M583 428 c-17 -21 -55 -100 -50 -104 2 -3 10 2 17 11 17 20 86 20 94
-1 3 -8 10 -12 16 -9 10 6 -42 107 -58 113 -5 1 -14 -3 -19 -10z m37 -49 c0
-5 -9 -9 -20 -9 -22 0 -23 1 -14 24 5 13 9 14 20 5 8 -6 14 -15 14 -20z"/>
<path d="M680 385 c0 -54 13 -74 23 -35 7 28 36 25 69 -7 22 -21 28 -23 28
-10 0 8 -5 19 -10 22 -6 4 -4 12 5 21 33 34 2 64 -66 64 l-49 0 0 -55z m98 18
c2 -9 -9 -13 -37 -13 -30 0 -41 4 -41 16 0 11 9 14 37 12 20 -2 38 -9 41 -15z"/>
<path d="M1028 419 c-30 -17 -20 -27 18 -19 38 9 71 2 122 -24 38 -20 82 -20
127 -2 41 18 49 41 9 26 -40 -16 -91 -12 -134 10 -42 21 -114 26 -142 9z"/>
<path d="M1013 368 c-37 -18 -27 -25 25 -20 36 3 59 -1 90 -17 65 -33 166 -23
180 17 3 11 0 12 -14 4 -46 -23 -86 -22 -140 3 -56 26 -104 31 -141 13z"/>
<path d="M152 298 c-11 -14 -82 -155 -82 -163 0 -15 30 -2 35 15 9 30 119 30
135 0 9 -17 40 -29 40 -16 0 2 -21 43 -46 90 -45 84 -61 99 -82 74z m43 -58
c22 -42 19 -46 -24 -42 l-40 4 16 34 c20 42 28 42 48 4z"/>
<path d="M300 205 c0 -59 3 -75 15 -75 10 0 15 15 17 57 l3 57 29 -42 c16 -23
32 -42 37 -42 4 0 20 18 36 40 15 22 31 40 36 40 4 0 7 -25 7 -55 0 -30 5 -55
10 -55 6 0 10 28 10 65 0 36 0 68 0 73 1 4 -8 8 -19 10 -14 2 -28 -9 -47 -37
-15 -23 -29 -41 -33 -41 -3 0 -19 18 -34 40 -16 23 -36 40 -48 40 -17 0 -19
-8 -19 -75z"/>
<path d="M530 205 l0 -75 80 0 c64 0 80 3 80 15 0 12 -14 15 -65 15 -51 0 -65
3 -65 15 0 11 12 15 45 15 33 0 45 4 45 15 0 11 -12 15 -45 15 -33 0 -45 4
-45 15 0 12 14 15 65 15 51 0 65 3 65 15 0 12 -16 15 -80 15 l-80 0 0 -75z"/>
<path d="M720 205 c0 -43 4 -75 10 -75 6 0 10 11 10 25 0 23 4 25 43 25 36 0
46 -4 57 -25 7 -14 22 -25 32 -25 19 0 19 1 -1 28 -19 28 -19 28 0 40 24 15
24 44 1 65 -13 12 -37 17 -85 17 l-67 0 0 -75z m135 25 c0 -12 -13 -15 -55
-15 -45 0 -55 3 -58 18 -3 16 3 18 55 15 44 -2 58 -7 58 -18z"/>
<path d="M910 205 c0 -60 3 -75 15 -75 12 0 15 15 15 75 0 60 -3 75 -15 75
-12 0 -15 -15 -15 -75z"/>
<path d="M985 255 c-54 -54 -13 -125 73 -125 47 0 94 21 80 36 -5 4 -19 2 -33
-4 -54 -25 -115 -2 -115 42 0 44 53 62 123 42 35 -10 36 7 2 22 -45 21 -103
15 -130 -13z"/>
<path d="M1183 205 c-35 -64 -38 -75 -23 -75 10 0 20 7 24 15 4 11 20 15 56
15 36 0 52 -4 56 -15 4 -8 15 -15 25 -15 16 0 13 9 -21 73 -53 97 -65 98 -117
2z m87 -7 c0 -5 -13 -8 -30 -8 -35 0 -36 2 -13 36 l16 26 13 -24 c7 -12 13
-26 14 -30z"/>
<path d="M32 55 c-3 -5 -12 -20 -20 -32 l-14 -23 684 0 685 0 11 25 c7 14 12
29 12 33 0 11 -1351 8 -1358 -3z m100 -20 c0 -5 -5 -11 -11 -13 -6 -2 -11 4
-11 13 0 9 5 15 11 13 6 -2 11 -8 11 -13z m48 -6 c0 -5 -7 -9 -15 -9 -15 0
-20 12 -9 23 8 8 24 -1 24 -14z m37 6 c0 -8 -4 -15 -9 -15 -4 0 -8 7 -8 15 0
8 4 15 8 15 5 0 9 -7 9 -15z m53 -2 c0 -7 -7 -13 -15 -13 -8 0 -15 6 -15 13 0
8 7 14 15 14 8 0 15 -6 15 -14z m27 -5 c-3 -8 -6 -5 -6 6 -1 11 2 17 5 13 3
-3 4 -12 1 -19z m103 1 c0 -5 -9 -9 -20 -9 -11 0 -20 6 -20 14 0 9 7 12 20 9
11 -3 20 -9 20 -14z m70 4 c0 -7 -7 -13 -15 -13 -8 0 -15 6 -15 13 0 8 7 14
15 14 8 0 15 -6 15 -14z m45 -1 c0 -18 -20 -15 -23 4 -3 10 1 15 10 12 7 -3
13 -10 13 -16z m53 0 c2 -7 -3 -12 -12 -12 -9 0 -16 7 -16 16 0 17 22 14 28
-4z m119 3 c0 -8 -4 -15 -9 -15 -4 0 -8 7 -8 15 0 8 4 15 8 15 5 0 9 -7 9 -15z
m43 -6 c0 -5 -4 -9 -10 -9 -5 0 -10 7 -10 16 0 8 5 12 10 9 6 -3 10 -10 10
-16z m170 0 c0 -5 -7 -9 -15 -9 -8 0 -15 7 -15 15 0 9 6 12 15 9 8 -4 15 -10
15 -15z m50 0 c0 -5 -7 -9 -15 -9 -15 0 -20 12 -9 23 8 8 24 -1 24 -14z m48 3
c2 -7 -6 -12 -17 -12 -21 0 -27 11 -14 24 9 9 26 2 31 -12z m32 3 c0 -8 -4
-15 -10 -15 -5 0 -10 7 -10 15 0 8 5 15 10 15 6 0 10 -7 10 -15z m210 0 c0 -8
-4 -15 -10 -15 -5 0 -10 7 -10 15 0 8 5 15 10 15 6 0 10 -7 10 -15z m39 -14
c-15 -5 -22 6 -14 19 6 9 10 9 16 -1 5 -8 4 -15 -2 -18z m-939 7 c0 -4 -4 -8
-9 -8 -6 0 -12 4 -15 8 -3 5 1 9 9 9 8 0 15 -4 15 -9z m270 0 c0 -4 -7 -8 -15
-8 -8 0 -15 4 -15 8 0 5 7 9 15 9 8 0 15 -4 15 -9z m520 2 c0 -5 -7 -10 -15
-10 -8 0 -15 5 -15 10 0 6 7 10 15 10 8 0 15 -4 15 -10z m70 -2 c0 -4 -7 -8
-15 -8 -8 0 -15 4 -15 8 0 5 7 9 15 9 8 0 15 -4 15 -9z"/>
</g>
</svg>
