<?xml version="1.0" encoding="UTF-8"?>
<!DOCTYPE svg PUBLIC "-//W3C//DTD SVG 1.1//EN" "http://www.w3.org/Graphics/SVG/1.1/DTD/svg11.dtd">
<svg xmlns="http://www.w3.org/2000/svg" version="1.1" width="1600px" height="557px" style="shape-rendering:geometricPrecision; text-rendering:geometricPrecision; image-rendering:optimizeQuality; fill-rule:evenodd; clip-rule:evenodd" xmlns:xlink="http://www.w3.org/1999/xlink">
<g><path style="opacity:0.978" fill="#de3541" d="M 1254.5,-0.5 C 1266.83,-0.5 1279.17,-0.5 1291.5,-0.5C 1306.18,1.55023 1320.51,5.38356 1334.5,11C 1355.37,22.2699 1376.37,33.2699 1397.5,44C 1411.53,49.1444 1426.03,51.6444 1441,51.5C 1483.28,50.7393 1521.94,38.7393 1557,15.5C 1557.67,16.5 1557.67,17.5 1557,18.5C 1549.16,34.0176 1541.33,49.5176 1533.5,65C 1487.6,88.6052 1439.26,95.6052 1388.5,86C 1381.01,83.727 1373.68,81.0604 1366.5,78C 1348.15,67.823 1329.48,58.1563 1310.5,49C 1269.43,35.4579 1228.76,36.7912 1188.5,53C 1180.5,56.3482 1173,60.5149 1166,65.5C 1165.5,65.1667 1165,64.8333 1164.5,64.5C 1171.02,51.6216 1177.35,38.6216 1183.5,25.5C 1193.96,17.2659 1205.63,11.0992 1218.5,7C 1230.41,3.38639 1242.41,0.886385 1254.5,-0.5 Z"/></g>
<g><path style="opacity:0.996" fill="#014b97" d="M 1081.5,19.5 C 1101.32,19.0131 1120.99,19.5131 1140.5,21C 1126.36,53.0836 1112.03,85.0836 1097.5,117C 1104.83,117.5 1112.16,117.666 1119.5,117.5C 1115.17,129.5 1110.83,141.5 1106.5,153.5C 1098.5,153.5 1090.5,153.5 1082.5,153.5C 1077.92,165.158 1072.92,176.658 1067.5,188C 1050.17,188.5 1032.84,188.667 1015.5,188.5C 1019.95,176.934 1024.95,165.6 1030.5,154.5C 1002.51,153.5 974.508,153.167 946.5,153.5C 950.704,142.086 955.204,130.753 960,119.5C 1000.69,86.3024 1041.19,52.9691 1081.5,19.5 Z"/></g>
<g><path style="opacity:0.942" fill="#000000" d="M 177.5,34.5 C 205.213,32.304 231.879,36.4707 257.5,47C 263.363,49.5383 268.696,52.8716 273.5,57C 268.718,63.1189 263.551,68.9522 258,74.5C 226.043,57.6447 192.543,53.4781 157.5,62C 146.199,66.0925 142.699,73.5925 147,84.5C 155.111,90.4926 164.278,93.6593 174.5,94C 195.916,95.159 217.25,97.159 238.5,100C 253.108,102.054 265.608,108.221 276,118.5C 283.003,130.836 284.337,143.836 280,157.5C 272.679,172.475 260.846,181.975 244.5,186C 209.467,194.165 174.801,192.832 140.5,182C 130.474,178.24 121.307,173.074 113,166.5C 112.333,165.5 112.333,164.5 113,163.5C 116.385,159.783 119.385,155.783 122,151.5C 123.389,149.773 125.056,148.439 127,147.5C 161.668,168.139 198.501,173.306 237.5,163C 247.227,159.619 252.894,152.952 254.5,143C 253.989,134.481 249.656,128.814 241.5,126C 236.97,124.368 232.304,123.368 227.5,123C 207.853,121.093 188.187,119.426 168.5,118C 155.548,116.812 143.215,113.479 131.5,108C 119.172,98.9225 114.672,86.7558 118,71.5C 122.277,57.2192 131.444,47.3859 145.5,42C 155.988,38.1401 166.655,35.6401 177.5,34.5 Z"/></g>
<g><path style="opacity:0.942" fill="#000000" d="M 371.5,55.5 C 401.429,54.8479 426.262,65.5146 446,87.5C 461.292,111.828 461.292,136.162 446,160.5C 430.266,179.205 410.099,189.372 385.5,191C 354.302,194.711 327.469,185.878 305,164.5C 292.034,148.299 287.701,129.966 292,109.5C 298.05,87.7788 311.55,72.6121 332.5,64C 345.203,59.2223 358.203,56.389 371.5,55.5 Z M 363.5,79.5 C 383.083,77.4771 400.75,82.1438 416.5,93.5C 432.574,109.712 434.741,127.712 423,147.5C 413.575,158.8 401.409,165.3 386.5,167C 366.401,170.38 348.068,166.38 331.5,155C 311.5,134.333 311.5,113.667 331.5,93C 341.116,85.8551 351.782,81.3551 363.5,79.5 Z"/></g>
<g><path style="opacity:1" fill="#fbfcfd" d="M 1065.5,58.5 C 1066.49,63.6405 1066.82,68.9738 1066.5,74.5C 1066.5,77.8333 1066.5,81.1667 1066.5,84.5C 1076.51,84.3335 1086.51,84.5002 1096.5,85C 1086.34,90.2461 1076.34,95.7461 1066.5,101.5C 1065.45,110.494 1064.45,119.494 1063.5,128.5C 1057.19,123.353 1051.02,118.02 1045,112.5C 1035.2,117.993 1025.36,122.659 1015.5,126.5C 1021.3,118.404 1026.96,110.237 1032.5,102C 1027.68,96.0087 1022.34,90.5087 1016.5,85.5C 1027.04,85.1579 1037.37,84.1579 1047.5,82.5C 1053.5,74.5 1059.5,66.5 1065.5,58.5 Z"/></g>
<g><path style="opacity:0.978" fill="#de3541" d="M 1234.5,59.5 C 1261.23,57.4142 1286.9,61.5809 1311.5,72C 1330.86,82.3481 1350.2,92.6814 1369.5,103C 1390.46,111.042 1412.13,113.709 1434.5,111C 1454.81,109.005 1474.48,104.338 1493.5,97C 1507.4,91.0158 1520.73,84.3491 1533.5,77C 1525.24,93.0265 1517.07,109.193 1509,125.5C 1465.35,148.145 1419.19,155.645 1370.5,148C 1363.71,146.405 1357.05,144.405 1350.5,142C 1329.98,131.907 1309.65,121.574 1289.5,111C 1265.75,100.965 1241.09,97.6316 1215.5,101C 1188.39,103.148 1163.55,111.648 1141,126.5C 1140.33,125.5 1140.33,124.5 1141,123.5C 1146.83,111.167 1152.67,98.8333 1158.5,86.5C 1171.54,76.1981 1186.2,69.0315 1202.5,65C 1213.26,62.8111 1223.92,60.9777 1234.5,59.5 Z"/></g>
<g><path style="opacity:0.956" fill="#000000" d="M 469.5,60.5 C 478.167,60.5 486.833,60.5 495.5,60.5C 495.5,95.1667 495.5,129.833 495.5,164.5C 527.833,164.5 560.167,164.5 592.5,164.5C 592.5,172.167 592.5,179.833 592.5,187.5C 551.5,187.5 510.5,187.5 469.5,187.5C 469.5,145.167 469.5,102.833 469.5,60.5 Z"/></g>
<g><path style="opacity:0.949" fill="#000000" d="M 666.5,60.5 C 677.415,60.1797 688.248,60.513 699,61.5C 721.946,103.222 744.779,145.055 767.5,187C 757.833,187.667 748.167,187.667 738.5,187C 734.088,178.174 729.421,169.507 724.5,161C 696.494,160.167 668.494,160.333 640.5,161.5C 635.96,170.08 631.294,178.58 626.5,187C 617.173,187.5 607.839,187.666 598.5,187.5C 620.894,145.046 643.561,102.712 666.5,60.5 Z M 682.5,84.5 C 692.251,101.826 701.918,119.326 711.5,137C 692.491,137.833 673.491,137.666 654.5,136.5C 663.426,118.918 672.76,101.584 682.5,84.5 Z"/></g>
<g><path style="opacity:0.948" fill="#000000" d="M 775.5,60.5 C 813.168,60.3333 850.835,60.5 888.5,61C 913.646,66.8327 924.813,82.666 922,108.5C 918.997,125.838 908.83,136.338 891.5,140C 902.833,155.667 914.167,171.333 925.5,187C 915.5,187.667 905.5,187.667 895.5,187C 884.445,172.278 873.778,157.278 863.5,142C 842.836,141.5 822.169,141.333 801.5,141.5C 801.5,156.833 801.5,172.167 801.5,187.5C 792.833,187.5 784.167,187.5 775.5,187.5C 775.5,145.167 775.5,102.833 775.5,60.5 Z M 801.5,83.5 C 828.871,83.053 856.204,83.553 883.5,85C 895.767,90.5655 898.933,99.3988 893,111.5C 890.331,114.164 887.164,115.998 883.5,117C 856.169,117.5 828.835,117.667 801.5,117.5C 801.5,106.167 801.5,94.8333 801.5,83.5 Z"/></g>
<g><path style="opacity:1" fill="#618fbe" d="M 1065.5,58.5 C 1065.56,57.9569 1065.89,57.6236 1066.5,57.5C 1067.82,63.3204 1067.82,68.9871 1066.5,74.5C 1066.82,68.9738 1066.49,63.6405 1065.5,58.5 Z"/></g>
<g><path style="opacity:1" fill="#80a3ca" d="M 1047.5,82.5 C 1037.37,84.1579 1027.04,85.1579 1016.5,85.5C 1015.96,85.44 1015.62,85.1067 1015.5,84.5C 1026.23,83.8117 1036.89,83.1451 1047.5,82.5 Z"/></g>
<g><path style="opacity:0.979" fill="#de3541" d="M 1207.5,120.5 C 1234.45,118.178 1260.45,122.012 1285.5,132C 1305.5,142.667 1325.5,153.333 1345.5,164C 1367.9,171.976 1390.9,174.309 1414.5,171C 1447.88,167.301 1478.54,156.301 1506.5,138C 1507.33,137.312 1508,137.479 1508.5,138.5C 1500.67,154.167 1492.83,169.833 1485,185.5C 1457.53,200.746 1428.03,209.246 1396.5,211C 1369.84,213.96 1344.18,210.294 1319.5,200C 1299.6,188.885 1279.27,178.551 1258.5,169C 1235.74,161.027 1212.41,158.694 1188.5,162C 1162.01,164.176 1137.84,172.676 1116,187.5C 1121.39,174.042 1127.39,160.709 1134,147.5C 1150.61,134.508 1169.44,126.342 1190.5,123C 1196.33,122.29 1202,121.457 1207.5,120.5 Z"/></g>
<g><path style="opacity:0.961" fill="#000000" d="M 175.5,209.5 C 190.182,209.167 204.848,209.501 219.5,210.5C 254.456,276.405 289.456,342.405 324.5,408.5C 311.833,409.833 299.167,409.833 286.5,408.5C 279.167,394.5 271.833,380.5 264.5,366.5C 219.505,365.5 174.505,365.167 129.5,365.5C 122.853,380.294 115.52,394.794 107.5,409C 94.8333,409.667 82.1667,409.667 69.5,409C 104.973,342.552 140.307,276.052 175.5,209.5 Z M 196.5,240.5 C 198.433,241.642 199.933,243.308 201,245.5C 216.373,275.079 231.873,304.579 247.5,334C 214.162,334.833 180.828,334.667 147.5,333.5C 164.26,302.736 180.593,271.736 196.5,240.5 Z"/></g>
<g><path style="opacity:0.953" fill="#000000" d="M 1193.5,233.5 C 1228.77,230.312 1260.77,238.812 1289.5,259C 1297.18,265.346 1304.18,272.346 1310.5,280C 1310.09,280.945 1309.43,281.612 1308.5,282C 1299.26,285.456 1289.92,288.623 1280.5,291.5C 1248.21,264.448 1211.88,257.614 1171.5,271C 1138.04,285.03 1126.21,309.53 1136,344.5C 1144.64,362.129 1158.47,373.629 1177.5,379C 1207.95,387.552 1236.95,384.219 1264.5,369C 1270.27,365.064 1275.61,360.564 1280.5,355.5C 1290.33,360.58 1299.99,365.913 1309.5,371.5C 1286.64,397.93 1257.64,412.097 1222.5,414C 1188.6,417.441 1157.6,409.774 1129.5,391C 1099.05,365.627 1089.55,333.794 1101,295.5C 1109.92,274.583 1124.42,258.75 1144.5,248C 1160.07,240.196 1176.4,235.362 1193.5,233.5 Z"/></g>
<g><path style="opacity:0.952" fill="#000000" d="M 338.5,238.5 C 355.513,238.167 372.513,238.501 389.5,239.5C 411.779,271.113 434.446,302.446 457.5,333.5C 480.661,302.164 503.661,270.664 526.5,239C 543.497,238.5 560.497,238.333 577.5,238.5C 577.5,295.5 577.5,352.5 577.5,409.5C 565.833,409.5 554.167,409.5 542.5,409.5C 542.667,363.832 542.5,318.165 542,272.5C 514,310.5 486,348.5 458,386.5C 430,348.5 402,310.5 374,272.5C 373.5,318.165 373.333,363.832 373.5,409.5C 361.5,409.5 349.5,409.5 337.5,409.5C 337.171,352.429 337.504,295.429 338.5,238.5 Z"/></g>
<g><path style="opacity:0.967" fill="#000000" d="M 609.5,238.5 C 668.5,238.5 727.5,238.5 786.5,238.5C 786.5,249.167 786.5,259.833 786.5,270.5C 738.833,270.5 691.167,270.5 643.5,270.5C 643.5,282.167 643.5,293.833 643.5,305.5C 676.833,305.5 710.167,305.5 743.5,305.5C 743.5,315.833 743.5,326.167 743.5,336.5C 710.167,336.5 676.833,336.5 643.5,336.5C 643.5,350.833 643.5,365.167 643.5,379.5C 693.5,379.5 743.5,379.5 793.5,379.5C 793.5,389.5 793.5,399.5 793.5,409.5C 732.167,409.5 670.833,409.5 609.5,409.5C 609.5,352.5 609.5,295.5 609.5,238.5 Z"/></g>
<g><path style="opacity:0.953" fill="#000000" d="M 816.5,238.5 C 864.501,238.333 912.501,238.5 960.5,239C 999.113,243.279 1016.95,264.779 1014,303.5C 1012,318.359 1004.83,329.859 992.5,338C 986.258,341.132 979.924,343.966 973.5,346.5C 988.167,367.167 1002.83,387.833 1017.5,408.5C 1004.51,409.666 991.513,409.833 978.5,409C 963.446,388.946 948.779,368.613 934.5,348C 906.835,347.5 879.169,347.333 851.5,347.5C 851.5,368.167 851.5,388.833 851.5,409.5C 839.833,409.5 828.167,409.5 816.5,409.5C 816.5,352.5 816.5,295.5 816.5,238.5 Z M 851.5,270.5 C 887.168,270.333 922.835,270.5 958.5,271C 977.506,276.18 983.34,288.014 976,306.5C 971.531,312.107 965.698,315.273 958.5,316C 922.835,316.5 887.168,316.667 851.5,316.5C 851.5,301.167 851.5,285.833 851.5,270.5 Z"/></g>
<g><path style="opacity:0.971" fill="#000000" d="M 1040.5,238.5 C 1051.83,238.5 1063.17,238.5 1074.5,238.5C 1074.5,295.5 1074.5,352.5 1074.5,409.5C 1063.17,409.5 1051.83,409.5 1040.5,409.5C 1040.5,352.5 1040.5,295.5 1040.5,238.5 Z"/></g>
<g><path style="opacity:0.959" fill="#000000" d="M 1396.5,238.5 C 1410.52,238.167 1424.52,238.501 1438.5,239.5C 1469.72,295.944 1500.39,352.611 1530.5,409.5C 1517.82,409.832 1505.15,409.499 1492.5,408.5C 1486.5,397.167 1480.5,385.833 1474.5,374.5C 1436.5,373.167 1398.5,373.167 1360.5,374.5C 1354.55,386.241 1348.21,397.741 1341.5,409C 1328.83,409.667 1316.17,409.667 1303.5,409C 1334.41,351.996 1365.41,295.163 1396.5,238.5 Z M 1416.5,270.5 C 1417.38,270.369 1418.04,270.702 1418.5,271.5C 1431,295.146 1443.67,318.646 1456.5,342C 1430.49,342.833 1404.49,342.667 1378.5,341.5C 1391.45,317.938 1404.11,294.272 1416.5,270.5 Z"/></g>
<g><path style="opacity:0.791" fill="#000000" d="M 1565.5,354.5 C 1588.39,357.222 1597.55,369.888 1593,392.5C 1584.99,408.396 1572.49,413.563 1555.5,408C 1541.52,400.535 1536.35,389.035 1540,373.5C 1544.86,362.164 1553.36,355.831 1565.5,354.5 Z M 1579.5,398.5 C 1577.88,400.984 1575.55,402.484 1572.5,403C 1556.77,405.107 1547.77,398.273 1545.5,382.5C 1549.57,363.465 1560.57,357.632 1578.5,365C 1588.99,374.794 1590.16,385.628 1582,397.5C 1581.33,398.252 1580.5,398.586 1579.5,398.5 Z M 1562.5,373.5 C 1565.19,373.336 1567.85,373.503 1570.5,374C 1572.03,376.33 1571.7,378.33 1569.5,380C 1567.19,380.497 1564.86,380.663 1562.5,380.5C 1562.5,378.167 1562.5,375.833 1562.5,373.5 Z"/></g>
<g><path style="opacity:0.793" fill="#000000" d="M 1579.5,398.5 C 1577.4,398.799 1575.4,398.466 1573.5,397.5C 1572.35,393.715 1570.69,390.215 1568.5,387C 1566.53,386.505 1564.53,386.338 1562.5,386.5C 1562.5,390.5 1562.5,394.5 1562.5,398.5C 1560.5,398.5 1558.5,398.5 1556.5,398.5C 1556.5,388.5 1556.5,378.5 1556.5,368.5C 1561.46,367.504 1566.46,367.337 1571.5,368C 1577.54,369.697 1579.71,373.531 1578,379.5C 1577.5,381.333 1576.33,382.5 1574.5,383C 1577.53,388.004 1579.19,393.171 1579.5,398.5 Z M 1562.5,373.5 C 1562.5,375.833 1562.5,378.167 1562.5,380.5C 1564.86,380.663 1567.19,380.497 1569.5,380C 1571.7,378.33 1572.03,376.33 1570.5,374C 1567.85,373.503 1565.19,373.336 1562.5,373.5 Z"/></g>
<g><path style="opacity:0.995" fill="#014b97" d="M 1599.5,480.5 C 1599.5,481.5 1599.5,482.5 1599.5,483.5C 1585.75,507.317 1572.75,531.651 1560.5,556.5C 1040.17,556.5 519.833,556.5 -0.5,556.5C -0.5,555.5 -0.5,554.5 -0.5,553.5C 12.9323,529.476 26.2656,505.309 39.5,481C 559.5,480.5 1079.5,480.333 1599.5,480.5 Z"/></g>
<g><path style="opacity:1" fill="#f5f8fb" d="M 569.5,503.5 C 576.221,502.751 582.554,503.918 588.5,507C 596.699,516.287 596.366,525.287 587.5,534C 579.282,538.845 571.282,538.511 563.5,533C 555.215,520.916 557.215,511.083 569.5,503.5 Z"/></g>
<g><path style="opacity:1" fill="#f5f8fb" d="M 813.5,503.5 C 819.245,503.211 824.912,503.711 830.5,505C 831.333,507.081 831.333,509.248 830.5,511.5C 825.96,509.849 821.293,509.349 816.5,510C 813.833,512 813.833,514 816.5,516C 820.123,517.156 823.789,518.156 827.5,519C 833.544,521.932 835.044,526.432 832,532.5C 825.583,537.665 818.416,538.832 810.5,536C 806.072,534.701 805.405,532.367 808.5,529C 811.848,529.995 815.348,530.828 819,531.5C 822.298,531.777 824.465,530.444 825.5,527.5C 825.167,526.833 824.833,526.167 824.5,525.5C 820.506,524.335 816.506,523.168 812.5,522C 807.777,518.746 806.277,514.246 808,508.5C 809.73,506.598 811.563,504.931 813.5,503.5 Z"/></g>
<g><path style="opacity:1" fill="#f4f7fa" d="M 1399.5,503.5 C 1405.24,503.211 1410.91,503.711 1416.5,505C 1417.33,507.081 1417.33,509.248 1416.5,511.5C 1411.96,509.849 1407.29,509.349 1402.5,510C 1399.83,512 1399.83,514 1402.5,516C 1406.12,517.156 1409.79,518.156 1413.5,519C 1419.54,521.932 1421.04,526.432 1418,532.5C 1411.58,537.665 1404.42,538.832 1396.5,536C 1392.07,534.701 1391.41,532.367 1394.5,529C 1397.85,529.995 1401.35,530.828 1405,531.5C 1408.3,531.777 1410.46,530.444 1411.5,527.5C 1411.17,526.833 1410.83,526.167 1410.5,525.5C 1404.33,524.592 1398.83,522.259 1394,518.5C 1391.32,511.864 1393.15,506.864 1399.5,503.5 Z"/></g>
<g><path style="opacity:1" fill="#79a0c8" d="M 145.5,504.5 C 139.833,504.5 134.167,504.5 128.5,504.5C 128.5,515.167 128.5,525.833 128.5,536.5C 127.505,525.679 127.172,514.679 127.5,503.5C 133.69,503.177 139.69,503.51 145.5,504.5 Z"/></g>
<g><path style="opacity:1" fill="#fafbfc" d="M 145.5,504.5 C 154.892,506.613 158.059,512.279 155,521.5C 153.337,523.917 151.171,525.75 148.5,527C 144.179,527.499 139.846,527.666 135.5,527.5C 135.5,530.5 135.5,533.5 135.5,536.5C 133.167,536.5 130.833,536.5 128.5,536.5C 128.5,525.833 128.5,515.167 128.5,504.5C 134.167,504.5 139.833,504.5 145.5,504.5 Z"/></g>
<g><path style="opacity:1" fill="#f5f7fb" d="M 176.5,503.5 C 183.574,503.161 190.574,503.661 197.5,505C 204.132,508.097 206.299,513.264 204,520.5C 202.691,522.976 200.858,524.976 198.5,526.5C 200.64,529.807 202.974,532.974 205.5,536C 202.446,536.821 199.446,536.655 196.5,535.5C 194.375,529.82 190.375,527.154 184.5,527.5C 184.5,530.5 184.5,533.5 184.5,536.5C 181.833,536.5 179.167,536.5 176.5,536.5C 176.5,525.5 176.5,514.5 176.5,503.5 Z"/></g>
<g><path style="opacity:1" fill="#83a8cd" d="M 250.5,504.5 C 242.5,504.5 234.5,504.5 226.5,504.5C 226.5,515.167 226.5,525.833 226.5,536.5C 225.505,525.679 225.172,514.679 225.5,503.5C 234.017,503.174 242.35,503.507 250.5,504.5 Z"/></g>
<g><path style="opacity:1" fill="#f7f9fb" d="M 250.5,504.5 C 250.5,506.5 250.5,508.5 250.5,510.5C 244.833,510.5 239.167,510.5 233.5,510.5C 233.5,512.833 233.5,515.167 233.5,517.5C 238.5,517.5 243.5,517.5 248.5,517.5C 248.5,519.5 248.5,521.5 248.5,523.5C 243.5,523.5 238.5,523.5 233.5,523.5C 233.5,525.833 233.5,528.167 233.5,530.5C 239.5,530.5 245.5,530.5 251.5,530.5C 251.5,532.5 251.5,534.5 251.5,536.5C 243.167,536.5 234.833,536.5 226.5,536.5C 226.5,525.833 226.5,515.167 226.5,504.5C 234.5,504.5 242.5,504.5 250.5,504.5 Z"/></g>
<g><path style="opacity:1" fill="#6a95c2" d="M 278.5,504.5 C 276.5,504.5 274.5,504.5 272.5,504.5C 272.5,515.167 272.5,525.833 272.5,536.5C 271.505,525.679 271.172,514.679 271.5,503.5C 274.059,503.198 276.393,503.532 278.5,504.5 Z"/></g>
<g><path style="opacity:1" fill="#f7f9fc" d="M 272.5,536.5 C 272.5,525.833 272.5,515.167 272.5,504.5C 274.5,504.5 276.5,504.5 278.5,504.5C 282.439,510.793 286.439,517.127 290.5,523.5C 294.333,517.167 298.167,510.833 302,504.5C 304.041,503.577 306.208,503.244 308.5,503.5C 308.5,514.5 308.5,525.5 308.5,536.5C 306.167,536.5 303.833,536.5 301.5,536.5C 301.666,530.491 301.499,524.491 301,518.5C 298.268,522.241 295.934,526.241 294,530.5C 292.585,533.218 290.585,533.885 288,532.5C 285.584,527.999 282.917,523.666 280,519.5C 279.501,525.157 279.334,530.824 279.5,536.5C 277.167,536.5 274.833,536.5 272.5,536.5 Z"/></g>
<g><path style="opacity:1" fill="#fefffe" d="M 331.5,504.5 C 333.833,504.5 336.167,504.5 338.5,504.5C 338.5,515.167 338.5,525.833 338.5,536.5C 336.167,536.5 333.833,536.5 331.5,536.5C 331.5,525.833 331.5,515.167 331.5,504.5 Z"/></g>
<g><path style="opacity:1" fill="#95b4d3" d="M 331.5,504.5 C 333.948,503.527 336.615,503.194 339.5,503.5C 339.828,514.679 339.495,525.679 338.5,536.5C 338.5,525.833 338.5,515.167 338.5,504.5C 336.167,504.5 333.833,504.5 331.5,504.5 Z"/></g>
<g><path style="opacity:1" fill="#fafbfc" d="M 361.5,504.5 C 363.833,504.5 366.167,504.5 368.5,504.5C 368.176,511.354 368.509,518.021 369.5,524.5C 369.393,526.903 370.393,528.736 372.5,530C 375.993,531.004 379.159,530.504 382,528.5C 383.401,520.585 383.901,512.585 383.5,504.5C 385.833,504.5 388.167,504.5 390.5,504.5C 390.5,511.5 390.5,518.5 390.5,525.5C 389.18,533.647 384.347,537.647 376,537.5C 368.634,537.826 363.968,534.493 362,527.5C 361.5,519.841 361.334,512.174 361.5,504.5 Z"/></g>
<g><path style="opacity:1" fill="#81a5cb" d="M 361.5,504.5 C 363.948,503.527 366.615,503.194 369.5,503.5C 369.5,510.5 369.5,517.5 369.5,524.5C 368.509,518.021 368.176,511.354 368.5,504.5C 366.167,504.5 363.833,504.5 361.5,504.5 Z"/></g>
<g><path style="opacity:1" fill="#779ec7" d="M 383.5,504.5 C 385.948,503.527 388.615,503.194 391.5,503.5C 391.825,511.019 391.492,518.352 390.5,525.5C 390.5,518.5 390.5,511.5 390.5,504.5C 388.167,504.5 385.833,504.5 383.5,504.5 Z"/></g>
<g><path style="opacity:1" fill="#f9fbfc" d="M 443.5,504.5 C 445.5,504.5 447.5,504.5 449.5,504.5C 449.5,515.167 449.5,525.833 449.5,536.5C 447.5,536.5 445.5,536.5 443.5,536.5C 443.666,530.158 443.5,523.825 443,517.5C 442.283,518.044 441.783,518.711 441.5,519.5C 439.012,523.806 436.512,528.139 434,532.5C 432.506,533.747 431.006,533.747 429.5,532.5C 426.918,527.667 424.085,523 421,518.5C 420.501,524.491 420.334,530.491 420.5,536.5C 418.167,536.5 415.833,536.5 413.5,536.5C 413.5,525.5 413.5,514.5 413.5,503.5C 415.924,503.192 418.257,503.526 420.5,504.5C 424.333,510.833 428.167,517.167 432,523.5C 435.845,517.139 439.678,510.806 443.5,504.5 Z"/></g>
<g><path style="opacity:1" fill="#b0c7de" d="M 443.5,504.5 C 445.607,503.532 447.941,503.198 450.5,503.5C 450.828,514.679 450.495,525.679 449.5,536.5C 449.5,525.833 449.5,515.167 449.5,504.5C 447.5,504.5 445.5,504.5 443.5,504.5 Z"/></g>
<g><path style="opacity:1" fill="#6390bf" d="M 507.5,504.5 C 505.5,504.5 503.5,504.5 501.5,504.5C 501.5,515.167 501.5,525.833 501.5,536.5C 500.505,525.679 500.172,514.679 500.5,503.5C 503.059,503.198 505.393,503.532 507.5,504.5 Z"/></g>
<g><path style="opacity:1" fill="#f7f9fc" d="M 501.5,536.5 C 501.5,525.833 501.5,515.167 501.5,504.5C 503.5,504.5 505.5,504.5 507.5,504.5C 511.439,510.793 515.439,517.127 519.5,523.5C 523.532,517.298 527.365,510.965 531,504.5C 533.041,503.577 535.208,503.244 537.5,503.5C 537.5,514.5 537.5,525.5 537.5,536.5C 535.167,536.5 532.833,536.5 530.5,536.5C 530.666,530.491 530.499,524.491 530,518.5C 527.667,522.5 525.333,526.5 523,530.5C 521.585,533.218 519.585,533.885 517,532.5C 514.584,527.999 511.917,523.666 509,519.5C 508.501,525.157 508.334,530.824 508.5,536.5C 506.167,536.5 503.833,536.5 501.5,536.5 Z"/></g>
<g><path style="opacity:1" fill="#8eafd1" d="M 634.5,504.5 C 628.167,504.5 621.833,504.5 615.5,504.5C 615.5,515.167 615.5,525.833 615.5,536.5C 614.505,525.679 614.172,514.679 614.5,503.5C 621.354,503.176 628.021,503.509 634.5,504.5 Z"/></g>
<g><path style="opacity:1" fill="#f9fafc" d="M 634.5,504.5 C 647.284,508.749 650.784,517.082 645,529.5C 642.76,532.402 639.927,534.569 636.5,536C 629.508,536.5 622.508,536.666 615.5,536.5C 615.5,525.833 615.5,515.167 615.5,504.5C 621.833,504.5 628.167,504.5 634.5,504.5 Z"/></g>
<g><path style="opacity:1" fill="#f3f6fa" d="M 667.5,503.5 C 670.167,503.5 672.833,503.5 675.5,503.5C 675.334,511.174 675.5,518.841 676,526.5C 677.018,529.683 679.185,531.016 682.5,530.5C 685.325,530.881 687.491,529.881 689,527.5C 689.5,519.507 689.666,511.507 689.5,503.5C 692.167,503.5 694.833,503.5 697.5,503.5C 697.666,511.507 697.5,519.507 697,527.5C 694.435,534.386 689.435,537.719 682,537.5C 676.089,537.379 671.755,534.712 669,529.5C 667.624,520.902 667.124,512.235 667.5,503.5 Z"/></g>
<g><path style="opacity:1" fill="#fefefe" d="M 727.5,530.5 C 732.833,530.5 738.167,530.5 743.5,530.5C 743.5,532.5 743.5,534.5 743.5,536.5C 735.833,536.5 728.167,536.5 720.5,536.5C 720.5,525.833 720.5,515.167 720.5,504.5C 722.5,504.5 724.5,504.5 726.5,504.5C 726.174,513.349 726.507,522.016 727.5,530.5 Z"/></g>
<g><path style="opacity:1" fill="#c8d8e8" d="M 727.5,530.5 C 726.507,522.016 726.174,513.349 726.5,504.5C 724.5,504.5 722.5,504.5 720.5,504.5C 720.5,515.167 720.5,525.833 720.5,536.5C 719.505,525.679 719.172,514.679 719.5,503.5C 722.167,503.5 724.833,503.5 727.5,503.5C 727.5,512.5 727.5,521.5 727.5,530.5 Z"/></g>
<g><path style="opacity:1" fill="#8fafd1" d="M 787.5,504.5 C 779.5,504.5 771.5,504.5 763.5,504.5C 763.5,515.167 763.5,525.833 763.5,536.5C 762.505,525.679 762.172,514.679 762.5,503.5C 771.017,503.174 779.35,503.507 787.5,504.5 Z"/></g>
<g><path style="opacity:1" fill="#f6f8fb" d="M 787.5,504.5 C 787.5,506.5 787.5,508.5 787.5,510.5C 781.833,510.5 776.167,510.5 770.5,510.5C 770.5,512.833 770.5,515.167 770.5,517.5C 775.5,517.5 780.5,517.5 785.5,517.5C 785.5,519.5 785.5,521.5 785.5,523.5C 780.5,523.5 775.5,523.5 770.5,523.5C 770.5,525.833 770.5,528.167 770.5,530.5C 776.5,530.5 782.5,530.5 788.5,530.5C 788.5,532.5 788.5,534.5 788.5,536.5C 780.167,536.5 771.833,536.5 763.5,536.5C 763.5,525.833 763.5,515.167 763.5,504.5C 771.5,504.5 779.5,504.5 787.5,504.5 Z"/></g>
<g><path style="opacity:1" fill="#db3643" d="M 901.5,516.5 C 906.167,515.833 910.833,515.167 915.5,514.5C 918.422,510.399 921.589,506.399 925,502.5C 925.499,506.821 925.666,511.154 925.5,515.5C 929.846,515.334 934.179,515.501 938.5,516C 934.167,518.5 929.833,521 925.5,523.5C 924.833,527.833 924.167,532.167 923.5,536.5C 920.744,533.573 917.578,531.24 914,529.5C 909.083,531.883 904.25,534.05 899.5,536C 903.081,532.252 906.081,528.085 908.5,523.5C 906.479,520.812 904.146,518.479 901.5,516.5 Z"/></g>
<g><path style="opacity:1" fill="#f9fbfc" d="M 1024.5,504.5 C 1026.5,504.5 1028.5,504.5 1030.5,504.5C 1030.5,515.167 1030.5,525.833 1030.5,536.5C 1028.5,536.5 1026.5,536.5 1024.5,536.5C 1024.67,530.158 1024.5,523.825 1024,517.5C 1023.28,518.044 1022.78,518.711 1022.5,519.5C 1020.01,523.806 1017.51,528.139 1015,532.5C 1013.51,533.747 1012.01,533.747 1010.5,532.5C 1007.92,527.667 1005.08,523 1002,518.5C 1001.5,524.491 1001.33,530.491 1001.5,536.5C 999.167,536.5 996.833,536.5 994.5,536.5C 994.5,525.5 994.5,514.5 994.5,503.5C 996.924,503.192 999.257,503.526 1001.5,504.5C 1004.83,511.166 1008.66,517.499 1013,523.5C 1016.84,517.139 1020.68,510.806 1024.5,504.5 Z"/></g>
<g><path style="opacity:1" fill="#94b3d3" d="M 1024.5,504.5 C 1026.61,503.532 1028.94,503.198 1031.5,503.5C 1031.83,514.679 1031.49,525.679 1030.5,536.5C 1030.5,525.833 1030.5,515.167 1030.5,504.5C 1028.5,504.5 1026.5,504.5 1024.5,504.5 Z"/></g>
<g><path style="opacity:1" fill="#f6f9fb" d="M 1063.5,503.5 C 1066.45,503.223 1069.28,503.556 1072,504.5C 1076.8,515.081 1081.3,525.747 1085.5,536.5C 1082.83,536.5 1080.17,536.5 1077.5,536.5C 1077.16,530.663 1073.99,528.329 1068,529.5C 1062.04,527.927 1058.54,530.093 1057.5,536C 1054.83,536.667 1052.17,536.667 1049.5,536C 1054.59,525.324 1059.26,514.491 1063.5,503.5 Z"/></g>
<g><path style="opacity:1" fill="#f7f9fc" d="M 1104.5,503.5 C 1111.91,503.152 1119.24,503.652 1126.5,505C 1136.06,509.36 1139.23,516.526 1136,526.5C 1134.1,531.4 1130.6,534.567 1125.5,536C 1118.51,536.5 1111.51,536.666 1104.5,536.5C 1104.5,525.5 1104.5,514.5 1104.5,503.5 Z"/></g>
<g><path style="opacity:1" fill="#86aacd" d="M 1182.5,504.5 C 1174.5,504.5 1166.5,504.5 1158.5,504.5C 1158.5,515.167 1158.5,525.833 1158.5,536.5C 1157.51,525.679 1157.17,514.679 1157.5,503.5C 1166.02,503.174 1174.35,503.507 1182.5,504.5 Z"/></g>
<g><path style="opacity:1" fill="#f7f9fb" d="M 1182.5,504.5 C 1182.5,506.5 1182.5,508.5 1182.5,510.5C 1176.83,510.5 1171.17,510.5 1165.5,510.5C 1165.5,512.833 1165.5,515.167 1165.5,517.5C 1170.5,517.5 1175.5,517.5 1180.5,517.5C 1180.5,519.5 1180.5,521.5 1180.5,523.5C 1175.5,523.5 1170.5,523.5 1165.5,523.5C 1165.5,525.833 1165.5,528.167 1165.5,530.5C 1171.5,530.5 1177.5,530.5 1183.5,530.5C 1183.5,532.5 1183.5,534.5 1183.5,536.5C 1175.17,536.5 1166.83,536.5 1158.5,536.5C 1158.5,525.833 1158.5,515.167 1158.5,504.5C 1166.5,504.5 1174.5,504.5 1182.5,504.5 Z"/></g>
<g><path style="opacity:1" fill="#3e74ae" d="M 1239.5,536.5 C 1239.5,525.833 1239.5,515.167 1239.5,504.5C 1237.17,504.5 1234.83,504.5 1232.5,504.5C 1232.5,515.167 1232.5,525.833 1232.5,536.5C 1231.51,525.679 1231.17,514.679 1231.5,503.5C 1234.5,503.5 1237.5,503.5 1240.5,503.5C 1240.83,514.679 1240.49,525.679 1239.5,536.5 Z"/></g>
<g><path style="opacity:1" fill="#fefffe" d="M 1239.5,536.5 C 1237.17,536.5 1234.83,536.5 1232.5,536.5C 1232.5,525.833 1232.5,515.167 1232.5,504.5C 1234.83,504.5 1237.17,504.5 1239.5,504.5C 1239.5,515.167 1239.5,525.833 1239.5,536.5 Z"/></g>
<g><path style="opacity:1" fill="#fbfcfd" d="M 1283.5,522.5 C 1283.56,523.043 1283.89,523.376 1284.5,523.5C 1285.5,517.202 1285.83,510.868 1285.5,504.5C 1287.5,504.5 1289.5,504.5 1291.5,504.5C 1291.5,515.167 1291.5,525.833 1291.5,536.5C 1289.47,536.662 1287.47,536.495 1285.5,536C 1280.69,529.556 1275.52,523.389 1270,517.5C 1269.5,523.825 1269.33,530.158 1269.5,536.5C 1267.17,536.5 1264.83,536.5 1262.5,536.5C 1262.5,525.5 1262.5,514.5 1262.5,503.5C 1264.92,503.192 1267.26,503.526 1269.5,504.5C 1274.57,510.233 1279.24,516.233 1283.5,522.5 Z"/></g>
<g><path style="opacity:1" fill="#c5d6e7" d="M 1291.5,536.5 C 1291.5,525.833 1291.5,515.167 1291.5,504.5C 1289.5,504.5 1287.5,504.5 1285.5,504.5C 1285.83,510.868 1285.5,517.202 1284.5,523.5C 1283.89,523.376 1283.56,523.043 1283.5,522.5C 1284.49,516.355 1284.82,510.022 1284.5,503.5C 1287.17,503.5 1289.83,503.5 1292.5,503.5C 1292.83,514.679 1292.49,525.679 1291.5,536.5 Z"/></g>
<g><path style="opacity:1" fill="#f6f8fb" d="M 1364.5,522.5 C 1365.49,516.69 1365.82,510.69 1365.5,504.5C 1367.5,504.5 1369.5,504.5 1371.5,504.5C 1371.5,512.167 1371.5,519.833 1371.5,527.5C 1369.24,534.394 1364.4,537.727 1357,537.5C 1350.15,537.324 1345.48,533.991 1343,527.5C 1342.5,519.507 1342.33,511.507 1342.5,503.5C 1345.17,503.5 1347.83,503.5 1350.5,503.5C 1350.06,511.943 1350.56,520.277 1352,528.5C 1354.84,530.504 1358.01,531.004 1361.5,530C 1363.75,528.005 1364.75,525.505 1364.5,522.5 Z"/></g>
<g><path style="opacity:1" fill="#b7cce1" d="M 1371.5,527.5 C 1371.5,519.833 1371.5,512.167 1371.5,504.5C 1369.5,504.5 1367.5,504.5 1365.5,504.5C 1365.82,510.69 1365.49,516.69 1364.5,522.5C 1364.5,516.167 1364.5,509.833 1364.5,503.5C 1367.17,503.5 1369.83,503.5 1372.5,503.5C 1372.83,511.684 1372.49,519.684 1371.5,527.5 Z"/></g>
<g><path style="opacity:1" fill="#f6f9fb" d="M 1449.5,503.5 C 1452.25,503.187 1454.91,503.52 1457.5,504.5C 1462.44,514.715 1467.11,525.048 1471.5,535.5C 1466.09,537.667 1462.75,536 1461.5,530.5C 1456.21,529.505 1450.87,529.172 1445.5,529.5C 1444.93,535.832 1441.6,537.832 1435.5,535.5C 1440.37,524.892 1445.03,514.225 1449.5,503.5 Z"/></g>
<g><path style="opacity:1" fill="#084e98" d="M 135.5,510.5 C 139.911,510.021 144.078,510.688 148,512.5C 149.379,516.475 148.213,519.309 144.5,521C 141.518,521.498 138.518,521.665 135.5,521.5C 135.5,517.833 135.5,514.167 135.5,510.5 Z"/></g>
<g><path style="opacity:1" fill="#0e4e99" d="M 184.5,510.5 C 187.85,510.335 191.183,510.502 194.5,511C 198.566,514.745 198.233,518.078 193.5,521C 190.518,521.498 187.518,521.665 184.5,521.5C 184.5,517.833 184.5,514.167 184.5,510.5 Z"/></g>
<g><path style="opacity:1" fill="#084d98" d="M 572.5,509.5 C 585.138,509.961 588.971,515.961 584,527.5C 580.319,530.36 576.152,531.193 571.5,530C 566.847,526.212 565.347,521.378 567,515.5C 568.36,512.977 570.193,510.977 572.5,509.5 Z"/></g>
<g><path style="opacity:1" fill="#044c98" d="M 622.5,510.5 C 627.777,509.931 632.777,510.765 637.5,513C 641.898,526.453 636.898,532.286 622.5,530.5C 622.5,523.833 622.5,517.167 622.5,510.5 Z"/></g>
<g><path style="opacity:1" fill="#759dc7" d="M 1120.5,510.5 C 1117.83,510.5 1115.17,510.5 1112.5,510.5C 1112.5,517.167 1112.5,523.833 1112.5,530.5C 1111.51,523.687 1111.18,516.687 1111.5,509.5C 1114.71,509.19 1117.71,509.523 1120.5,510.5 Z"/></g>
<g><path style="opacity:1" fill="#084d98" d="M 1120.5,510.5 C 1127.83,511.81 1130.66,516.143 1129,523.5C 1128.31,526.057 1126.81,527.891 1124.5,529C 1120.6,530.266 1116.6,530.766 1112.5,530.5C 1112.5,523.833 1112.5,517.167 1112.5,510.5C 1115.17,510.5 1117.83,510.5 1120.5,510.5 Z"/></g>
<g><path style="opacity:1" fill="#2a5ca1" d="M 1067.5,512.5 C 1069.93,516.111 1071.6,520.111 1072.5,524.5C 1069.1,524.82 1065.77,524.487 1062.5,523.5C 1064.37,519.888 1066.03,516.221 1067.5,512.5 Z"/></g>
<g><path style="opacity:1" fill="#803f66" d="M 915.5,514.5 C 910.833,515.167 906.167,515.833 901.5,516.5C 900.957,516.44 900.624,516.107 900.5,515.5C 905.456,514.506 910.456,514.173 915.5,514.5 Z"/></g>
<g><path style="opacity:1" fill="#285ba1" d="M 1452.5,512.5 C 1455.22,515.583 1457.22,519.25 1458.5,523.5C 1455.17,524.833 1451.83,524.833 1448.5,523.5C 1450.24,519.951 1451.57,516.284 1452.5,512.5 Z"/></g>
<g><path style="opacity:1" fill="#5f8dbd" d="M 443.5,536.5 C 442.833,530.833 442.167,525.167 441.5,519.5C 441.783,518.711 442.283,518.044 443,517.5C 443.5,523.825 443.666,530.158 443.5,536.5 Z"/></g>
<g><path style="opacity:1" fill="#7ea3ca" d="M 1024.5,536.5 C 1023.83,530.833 1023.17,525.167 1022.5,519.5C 1022.78,518.711 1023.28,518.044 1024,517.5C 1024.5,523.825 1024.67,530.158 1024.5,536.5 Z"/></g>
</svg>
